<svg xmlns="http://www.w3.org/2000/svg" width="31" height="20" fill="none" viewBox="0 0 31 20">
    <path fill="#E2574C" d="M19 10c0 5.524-4.252 10-9.5 10S0 15.523 0 10 4.254 0 9.5 0 19 4.477 19 10z"/>
    <path fill="#F4B459" d="M21.5 0c-2.13 0-4.09.747-5.675 1.994l.008.001c.312.317.656.54.92.905l-1.975.033c-.31.329-.592.687-.858 1.059h3.484c.265.335.51.626.733.996h-4.849c-.178.322-.342.653-.485.997h5.886c.154.343.291.602.408.965h-6.643c-.105.345-.196.698-.264 1.058h7.185c.07.346.125.666.162.992h-7.49c-.03.33-.047.663-.047 1h7.591c0 .354-.024.682-.058 1h-7.486c.033.34.08.672.143 1h7.174c-.074.324-.16.65-.267.988h-6.665c.1.342.224.674.357.998h5.9c-.164.364-.349.655-.553.996H13.27c.192.35.404.684.634 1.004l3.5.055c-.299.377-.682.604-1.03.934.018.016-.558-.002-1.693-.021C16.409 18.83 18.822 20 21.5 20c5.247 0 9.5-4.477 9.5-10S26.748 0 21.5 0z"/>
</svg>
