<svg xmlns="http://www.w3.org/2000/svg" width="58" height="22" fill="none" viewBox="0 0 58 22">
    <path fill="#3C58BF" d="M21 20l3.122-17H29l-3.024 17H21z"/>
    <path fill="#293688" d="M21 20l4-17h4l-3.024 17H21z"/>
    <path fill="#3C58BF" d="M43 2.716C42.085 2.358 40.62 2 38.79 2c-4.574 0-7.868 2.237-7.868 5.458 0 2.416 2.287 3.668 4.117 4.474 1.83.805 2.38 1.342 2.38 2.057 0 1.074-1.465 1.611-2.746 1.611-1.83 0-2.836-.268-4.392-.895l-.64-.268L29 18.105c1.098.448 3.111.895 5.216.895 4.85 0 8.052-2.237 8.052-5.637 0-1.879-1.19-3.31-3.935-4.474-1.647-.805-2.653-1.252-2.653-2.057 0-.716.823-1.432 2.653-1.432 1.556 0 2.654.268 3.477.626l.458.18.732-3.49z"/>
    <path fill="#293688" d="M43 2.716C42.085 2.358 40.62 2 38.79 2c-4.574 0-7.045 2.237-7.045 5.458 0 2.416 1.464 3.668 3.294 4.474 1.83.805 2.38 1.342 2.38 2.057 0 1.074-1.465 1.611-2.746 1.611-1.83 0-2.836-.268-4.392-.895l-.64-.268L29 18.105c1.098.448 3.111.895 5.216.895 4.85 0 8.052-2.237 8.052-5.637 0-1.879-1.19-3.31-3.935-4.474-1.647-.805-2.653-1.252-2.653-2.057 0-.716.823-1.432 2.653-1.432 1.556 0 2.654.268 3.477.626l.458.18.732-3.49z"/>
    <path fill="#3C58BF" d="M50.434 3c-1.12 0-1.962.094-2.428 1.228L41 20h5.044l.934-2.833h5.978l.56 2.833H58L54.077 3h-3.643zm-2.148 11.333c.28-.85 1.868-5.005 1.868-5.005s.373-1.04.654-1.7l.28 1.605s.934 4.25 1.12 5.195h-3.922v-.095z"/>
    <path fill="#293688" d="M51.555 3c-1.12 0-1.962.094-2.429 1.228L41 20h5.044l.934-2.833h5.978l.56 2.833H58L54.077 3h-2.522zm-3.27 11.333c.374-.944 1.869-5.005 1.869-5.005s.373-1.04.654-1.7l.28 1.605s.934 4.25 1.12 5.195h-3.922v-.095z"/>
    <path fill="#3C58BF" d="M13.083 14.806l-.472-2.456C11.761 9.517 9.022 6.4 6 4.889L10.25 20h5.1L23 3h-5.1l-4.817 11.806z"/>
    <path fill="#293688" d="M13.083 14.806l-.472-2.456C11.761 9.517 9.022 6.4 6 4.889L10.25 20h5.1L23 3h-4.156l-5.76 11.806z"/>
    <path fill="#FFBC00" d="M0 3l.806.18C6.537 4.53 10.478 7.95 12 12l-1.612-7.65C10.12 3.27 9.313 3 8.328 3H0z"/>
    <path fill="#F7981D" d="M0 3c5.731 1.364 10.478 4.91 12 9l-1.522-6.455c-.269-1.09-1.165-1.727-2.15-1.727L0 3z"/>
    <path fill="#ED7C00" d="M0 3c5.731 1.364 10.478 4.91 12 9l-1.075-3.545c-.268-1.091-.627-2.182-1.88-2.637L0 3z"/>
    <path fill="#051244" d="M17 14.375l-3.016-3.188-1.42 3.563-.354-2.344C11.41 9.594 8.839 6.5 6 5l3.992 15h4.79L17 14.375zM26 20l-4.216-4L21 20h5zM37.03 14c.37.358.555.627.462.985 0 1.075-1.477 1.612-2.769 1.612-1.846 0-2.861-.269-4.43-.896l-.647-.268L29 19.105c1.108.447 3.139.895 5.261.895 2.954 0 5.354-.806 6.739-2.239L37.03 14zM42 20h4.297l.914-2.748h5.852L53.61 20H58l-1.554-6.687L50.96 8l.274 1.466s.915 4.122 1.097 5.038h-3.84c.366-.916 1.829-4.855 1.829-4.855s.366-1.008.64-1.649"/>
</svg>
