<svg xmlns="http://www.w3.org/2000/svg" width="51" height="20" fill="none" viewBox="0 0 51 20">
    <path fill="#225E63" d="M35.442 11.172l.558.158c-.037.15-.093.274-.177.37-.084.097-.176.177-.297.22-.121.054-.27.08-.456.08-.224 0-.4-.026-.55-.088-.139-.062-.26-.168-.362-.326-.102-.15-.158-.353-.158-.59 0-.318.093-.564.27-.74.176-.177.437-.256.763-.256.26 0 .455.053.604.15.149.097.26.246.326.458l-.558.114c-.019-.061-.038-.105-.066-.132-.037-.044-.074-.079-.13-.105-.056-.027-.111-.036-.167-.036-.14 0-.251.053-.326.168-.056.079-.083.211-.083.379 0 .211.037.36.102.44.065.08.167.123.288.123.121 0 .214-.035.27-.096.074-.08.121-.168.149-.291zM36 11.004c0-.317.087-.563.262-.74.175-.176.42-.264.734-.264.323 0 .567.088.742.255.175.177.262.415.262.732 0 .229-.035.414-.114.555-.078.14-.183.255-.331.335-.14.079-.324.123-.533.123-.218 0-.393-.035-.542-.106-.14-.07-.253-.176-.349-.335-.096-.158-.131-.325-.131-.555zm.594 0c0 .194.035.335.105.423.07.088.166.133.297.133.13 0 .227-.045.297-.124.07-.088.104-.238.104-.45 0-.184-.035-.316-.113-.396-.07-.088-.175-.123-.297-.123s-.218.044-.288.132c-.07.07-.105.212-.105.405zM38.016 10h.718l.274 1.218.274-1.218H40v2h-.452v-1.527L39.202 12h-.404l-.346-1.527V12H38v-2h.016zM41 10h1.215c.269 0 .462.054.591.163.13.108.194.253.194.452 0 .2-.075.362-.215.471-.14.118-.366.172-.656.172h-.398V12H41v-2zm.731.85h.183c.14 0 .236-.017.301-.063.054-.045.086-.09.086-.154 0-.063-.021-.117-.075-.162-.054-.046-.14-.064-.28-.064h-.204v.444h-.01z"/>
    <path fill="#225E63" d="M43 10h.39v1.51H44V12h-1v-2zM44 10h1v2h-1v-2zM46.308 11.673h-.641l-.092.327H45l.692-2h.616L47 12h-.592l-.1-.327zm-.116-.428l-.2-.718-.2.719h.4zM47 10h.6l.79 1.11V10H49v2h-.61l-.78-1.1V12H47v-2zM49 10h2v.49h-.667V12h-.657v-1.51h-.666V10H49zM28.3 13.145l1.7-.54-.552-1.237c-.406.514-.812 1.176-1.148 1.777zM27.72 7.49L24.392 0 0 1.394 6.758 20l13.006-4.138c-.828-1.202-1.13-2.63-.172-3.327 1.07-.784 2.684.122 3.71 1.402.993-1.672 3.78-5.566 4.42-6.446z"/>
    <path fill="#FEFEFE" d="M24 5.448c1.103 0 2-.768 2-1.724S25.103 2 24 2s-2 .768-2 1.724c0 .947.897 1.724 2 1.724zm-1.636.743h3.271V14h-3.27V6.19zM20.779 8.415c.026.008.044 0 .044-.026V6.42c0-.025-.018-.05-.044-.068 0 0-.408-.254-1.648-.322-.062-.034-1.152-.043-1.444 0C13.168 6.377 13 9.51 13 9.646v.764c0 .094 0 3.295 4.687 3.575.46.034 1.355 0 1.444 0 1.08 0 1.825-.314 1.825-.314.026-.009.044-.034.044-.06V11.77c0-.026-.018-.034-.035-.017 0 0-.337.255-1.808.399-.416.042-.62.025-.77 0-2.091-.34-2.189-1.8-2.189-1.8 0-.026-.009-.068-.009-.085v-.56c0-.026 0-.069.01-.086 0 0 .141-1.57 2.188-1.74h.77c.895.11 1.622.535 1.622.535zM5 13.956c0 .027.018.044.044.044h3.028c.027 0 .045-.017.045-.044v-2.319c0-.026.017-.044.044-.044 0 0 4.839.34 4.839-2.842 0-2.52-3.037-2.79-4.031-2.747H5.044c-.026 0-.044.017-.044.044v7.908zm3.063-4.133V7.74h.746s1.074.044 1.163.768c.018.052.018.41 0 .427-.142.846-1.074.89-1.074.89h-.835z"/>
    <path fill="#2BBC5D" d="M23.782 18c.239 0 .426 0 .733-.143 1.056-.58 4.626-9.713 8.391-12.526.026-.018.051-.044.068-.071.026-.036.026-.072.026-.072s0-.187-.554-.187c-3.348-.098-6.832 7.267-8.663 10.178-.026.035-.145 0-.145 0s-1.227-1.518-2.292-2.098c-.026-.01-.145-.054-.273-.045-.085 0-.579.107-.809.357-.273.304-.264.473-.264.84 0 .026.017.151.051.214.264.482 1.448 2.196 2.428 3.142.145.116.375.411 1.303.411z"/>
    <path fill="#225E63" d="M33 3h2.995c.596 0 1.072.076 1.43.22.366.15.668.361.897.631.238.278.412.598.513.96.11.363.165.75.165 1.164 0 .64-.082 1.137-.238 1.491-.156.354-.376.65-.66.894-.284.236-.586.396-.907.48-.44.11-.842.16-1.2.16H33V3zm2.015 1.357v3.278h.495c.421 0 .724-.042.898-.127.174-.084.32-.236.421-.446.1-.21.156-.565.156-1.045 0-.64-.11-1.07-.34-1.306-.228-.236-.595-.354-1.126-.354h-.504zM39 6.984l1.947-.106c.047.276.13.488.26.634.213.236.51.35.9.35.287 0 .519-.057.677-.18.157-.121.24-.26.24-.414 0-.146-.074-.284-.222-.406-.148-.122-.5-.228-1.048-.334-.9-.178-1.53-.414-1.92-.707-.389-.293-.574-.667-.574-1.122 0-.3.102-.577.296-.845.195-.269.492-.472.89-.626.4-.155.937-.228 1.624-.228.843 0 1.493.138 1.928.415.446.276.705.715.789 1.317l-1.93.097c-.055-.26-.157-.447-.324-.569-.167-.122-.39-.179-.677-.179-.24 0-.417.04-.538.13-.12.09-.176.196-.176.326 0 .089.047.178.149.252.092.073.324.146.686.211.89.17 1.53.341 1.92.512.389.17.667.39.843.642.176.253.26.545.26.862 0 .374-.12.716-.352 1.025-.232.317-.566.553-.983.715-.418.163-.956.244-1.595.244-1.123 0-1.901-.187-2.337-.57-.427-.381-.668-.86-.733-1.446zM46 6.984l1.623-.106c.038.276.108.488.216.634.178.236.425.35.75.35.24 0 .433-.057.564-.18.131-.121.2-.26.2-.414 0-.146-.06-.284-.184-.406-.124-.122-.418-.228-.874-.334-.75-.178-1.275-.414-1.6-.707-.316-.293-.479-.667-.479-1.122 0-.3.085-.577.248-.845.162-.269.41-.472.742-.626.332-.155.78-.228 1.352-.228.703 0 1.244.138 1.607.415.371.276.588.715.657 1.317l-1.607.097c-.047-.26-.132-.447-.27-.569-.14-.122-.325-.179-.565-.179-.2 0-.348.04-.448.13-.1.09-.147.196-.147.326 0 .089.039.178.124.252.077.073.27.146.572.211.742.17 1.275.341 1.6.512.324.17.556.39.703.642.146.253.216.545.216.862 0 .374-.1.716-.294 1.025-.193.317-.471.553-.819.715-.348.163-.796.244-1.329.244-.935 0-1.584-.187-1.947-.57-.364-.381-.565-.86-.611-1.446z"/>
</svg>
