<svg width="71" height="71" viewBox="0 0 71 71" fill="none" xmlns="http://www.w3.org/2000/svg">
<g clip-path="url(#clip0)">
<path d="M26.0315 45.699L29.6378 25.4133H35.2728L31.7791 45.699H26.0315Z" fill="#3C58BF"/>
<path d="M26.0315 45.699L30.6521 25.4133H35.2728L31.7791 45.699H26.0315Z" fill="#293688"/>
<path d="M52.1794 25.6389C51.0524 25.1881 49.2492 24.7373 46.9953 24.7373C41.3603 24.7373 37.3032 27.5548 37.3032 31.6119C37.3032 34.6548 40.1206 36.2325 42.3746 37.2468C44.6286 38.2611 45.3048 38.9373 45.3048 39.8389C45.3048 41.1913 43.5016 41.8675 41.9238 41.8675C39.6699 41.8675 38.4302 41.5294 36.5143 40.7405L35.7254 40.4024L34.9365 45.023C36.2889 45.5865 38.7683 46.15 41.3603 46.15C47.3333 46.15 51.2778 43.3325 51.2778 39.05C51.2778 36.6833 49.8127 34.8802 46.4318 33.4151C44.4032 32.4008 43.1635 31.8373 43.1635 30.823C43.1635 29.9214 44.1778 29.0198 46.4318 29.0198C48.3476 29.0198 49.7 29.3579 50.7143 29.8087L51.2778 30.0341L52.1794 25.6389Z" fill="#3C58BF"/>
<path d="M52.1794 25.6389C51.0524 25.1881 49.2492 24.7373 46.9953 24.7373C41.3603 24.7373 38.3175 27.5548 38.3175 31.6119C38.3175 34.6548 40.1206 36.2325 42.3746 37.2468C44.6286 38.2611 45.3048 38.9373 45.3048 39.8389C45.3048 41.1913 43.5016 41.8675 41.9238 41.8675C39.6699 41.8675 38.4302 41.5294 36.5143 40.7405L35.7254 40.4024L34.9365 45.023C36.2889 45.5865 38.7683 46.15 41.3603 46.15C47.3333 46.15 51.2778 43.3325 51.2778 39.05C51.2778 36.6833 49.8127 34.8802 46.4318 33.4151C44.4032 32.4008 43.1635 31.8373 43.1635 30.823C43.1635 29.9214 44.1778 29.0198 46.4318 29.0198C48.3476 29.0198 49.7 29.3579 50.7143 29.8087L51.2778 30.0341L52.1794 25.6389Z" fill="#293688"/>
<path d="M61.8745 25.4133C60.5221 25.4133 59.5078 25.526 58.9443 26.8784L50.4919 45.699H56.5777L57.7046 42.3181H64.9173L65.5935 45.699H71.0031L66.2697 25.4133H61.8745ZM59.2824 38.9371C59.6205 37.9229 61.5364 32.9641 61.5364 32.9641C61.5364 32.9641 61.9872 31.7244 62.3253 30.9356L62.6634 32.8514C62.6634 32.8514 63.7904 37.9229 64.0157 39.0498H59.2824V38.9371Z" fill="#3C58BF"/>
<path d="M63.2269 25.4133C61.8745 25.4133 60.8602 25.526 60.2967 26.8784L50.4919 45.699H56.5777L57.7046 42.3181H64.9173L65.5935 45.699H71.0031L66.2697 25.4133H63.2269ZM59.2824 38.9371C59.7332 37.8102 61.5364 32.9641 61.5364 32.9641C61.5364 32.9641 61.9872 31.7244 62.3253 30.9356L62.6634 32.8514C62.6634 32.8514 63.7904 37.9229 64.0157 39.0498H59.2824V38.9371Z" fill="#293688"/>
<path d="M15.6645 39.6136L15.101 36.6835C14.0868 33.3025 10.8185 29.5835 7.21216 27.7803L12.2836 45.812H18.3693L27.4979 25.5264H21.4122L15.6645 39.6136Z" fill="#3C58BF"/>
<path d="M15.6645 39.6136L15.101 36.6835C14.0868 33.3025 10.8185 29.5835 7.21216 27.7803L12.2836 45.812H18.3693L27.4979 25.5264H22.5391L15.6645 39.6136Z" fill="#293688"/>
<path d="M0 25.4133L1.01429 25.6387C8.22698 27.3292 13.1857 31.6117 15.1016 36.6832L13.073 27.1038C12.7349 25.7514 11.7206 25.4133 10.481 25.4133H0Z" fill="#FFBC00"/>
<path d="M0 25.4133C7.2127 27.1038 13.1857 31.499 15.1016 36.5705L13.1857 28.5689C12.8476 27.2165 11.7206 26.4276 10.481 26.4276L0 25.4133Z" fill="#F7981D"/>
<path d="M0 25.4133C7.2127 27.1038 13.1857 31.499 15.1016 36.5705L13.7492 32.1752C13.4111 30.8229 12.9603 29.4705 11.3825 28.907L0 25.4133Z" fill="#ED7C00"/>
<path d="M21.2983 38.9373L17.4666 35.1056L15.6634 39.3881L15.2126 36.5707C14.1983 33.1897 10.9301 29.4707 7.32373 27.6675L12.3952 45.6992H18.4809L21.2983 38.9373Z" fill="#051244"/>
<path d="M31.7791 45.6992L26.9331 40.7405L26.0315 45.6992H31.7791Z" fill="#051244"/>
<path d="M44.7371 38.7119C45.1879 39.1627 45.4133 39.5008 45.3006 39.9516C45.3006 41.304 43.4975 41.9802 41.9197 41.9802C39.6657 41.9802 38.426 41.6421 36.5102 40.8532L35.7213 40.5151L34.9324 45.1357C36.2848 45.6992 38.7641 46.2627 41.3562 46.2627C44.9625 46.2627 47.8927 45.2484 49.5832 43.4452L44.7371 38.7119Z" fill="#051244"/>
<path d="M51.2727 45.6993H56.5695L57.6965 42.3183H64.9092L65.5854 45.6993H70.9949L69.0791 37.4723L62.3172 30.9358L62.6552 32.739C62.6552 32.739 63.7822 37.8104 64.0076 38.9374H59.2743C59.7251 37.8104 61.5283 32.9644 61.5283 32.9644C61.5283 32.9644 61.9791 31.7247 62.3172 30.9358" fill="#051244"/>
</g>
<defs>
<clipPath id="clip0">
<rect width="71" height="71" fill="white"/>
</clipPath>
</defs>
</svg>
