<svg width="71" height="71" viewBox="0 0 71 71" fill="none" xmlns="http://www.w3.org/2000/svg">
<g clip-path="url(#clip0)">
<path d="M26.0316 45.6991L29.638 25.4134H35.2729L31.7792 45.6991H26.0316Z" fill="#3C58BF"/>
<path d="M26.0316 45.6991L30.6523 25.4134H35.2729L31.7792 45.6991H26.0316Z" fill="#293688"/>
<path d="M52.1794 25.639C51.0524 25.1882 49.2492 24.7374 46.9953 24.7374C41.3603 24.7374 37.3032 27.5549 37.3032 31.612C37.3032 34.6549 40.1206 36.2327 42.3746 37.247C44.6286 38.2612 45.3048 38.9374 45.3048 39.839C45.3048 41.1914 43.5016 41.8676 41.9238 41.8676C39.6699 41.8676 38.4302 41.5295 36.5143 40.7406L35.7254 40.4025L34.9365 45.0231C36.2889 45.5866 38.7683 46.1501 41.3603 46.1501C47.3333 46.1501 51.2778 43.3327 51.2778 39.0501C51.2778 36.6835 49.8127 34.8803 46.4318 33.4152C44.4032 32.4009 43.1635 31.8374 43.1635 30.8231C43.1635 29.9216 44.1778 29.02 46.4318 29.02C48.3476 29.02 49.7 29.3581 50.7143 29.8089L51.2778 30.0343L52.1794 25.639Z" fill="#3C58BF"/>
<path d="M52.1794 25.639C51.0524 25.1882 49.2492 24.7374 46.9953 24.7374C41.3603 24.7374 38.3175 27.5549 38.3175 31.612C38.3175 34.6549 40.1206 36.2327 42.3746 37.247C44.6286 38.2612 45.3048 38.9374 45.3048 39.839C45.3048 41.1914 43.5016 41.8676 41.9238 41.8676C39.6699 41.8676 38.4302 41.5295 36.5143 40.7406L35.7254 40.4025L34.9365 45.0231C36.2889 45.5866 38.7683 46.1501 41.3603 46.1501C47.3333 46.1501 51.2778 43.3327 51.2778 39.0501C51.2778 36.6835 49.8127 34.8803 46.4318 33.4152C44.4032 32.4009 43.1635 31.8374 43.1635 30.8231C43.1635 29.9216 44.1778 29.02 46.4318 29.02C48.3476 29.02 49.7 29.3581 50.7143 29.8089L51.2778 30.0343L52.1794 25.639Z" fill="#293688"/>
<path d="M61.8746 25.4134C60.5222 25.4134 59.5079 25.5261 58.9444 26.8785L50.4921 45.6991H56.5778L57.7048 42.3182H64.9175L65.5937 45.6991H71.0032L66.2698 25.4134H61.8746ZM59.2825 38.9372C59.6206 37.9229 61.5365 32.9642 61.5365 32.9642C61.5365 32.9642 61.9873 31.7245 62.3254 30.9356L62.6635 32.8515C62.6635 32.8515 63.7905 37.9229 64.0159 39.0499H59.2825V38.9372Z" fill="#3C58BF"/>
<path d="M63.227 25.4134C61.8746 25.4134 60.8603 25.5261 60.2968 26.8785L50.4921 45.6991H56.5778L57.7048 42.3182H64.9175L65.5937 45.6991H71.0032L66.2698 25.4134H63.227ZM59.2825 38.9372C59.7333 37.8102 61.5365 32.9642 61.5365 32.9642C61.5365 32.9642 61.9873 31.7245 62.3254 30.9356L62.6635 32.8515C62.6635 32.8515 63.7905 37.9229 64.0159 39.0499H59.2825V38.9372Z" fill="#293688"/>
<path d="M15.6647 39.6136L15.1012 36.6834C14.0869 33.3025 10.8186 29.5834 7.21228 27.7802L12.2837 45.812H18.3694L27.498 25.5263H21.4123L15.6647 39.6136Z" fill="#3C58BF"/>
<path d="M15.6647 39.6136L15.1012 36.6834C14.0869 33.3025 10.8186 29.5834 7.21228 27.7802L12.2837 45.812H18.3694L27.498 25.5263H22.5393L15.6647 39.6136Z" fill="#293688"/>
<path d="M0 25.4134L1.01429 25.6388C8.22698 27.3293 13.1857 31.6118 15.1016 36.6832L13.073 27.1039C12.7349 25.7515 11.7206 25.4134 10.481 25.4134H0Z" fill="#FFBC00"/>
<path d="M0 25.4134C7.2127 27.1039 13.1857 31.4991 15.1016 36.5705L13.1857 28.5689C12.8476 27.2166 11.7206 26.4277 10.481 26.4277L0 25.4134Z" fill="#F7981D"/>
<path d="M0 25.4134C7.2127 27.1039 13.1857 31.4991 15.1016 36.5705L13.7492 32.1753C13.4111 30.8229 12.9603 29.4705 11.3825 28.907L0 25.4134Z" fill="#ED7C00"/>
<path d="M21.2984 38.9372L17.4667 35.1055L15.6635 39.388L15.2127 36.5706C14.1984 33.1896 10.9301 29.4706 7.32379 27.6674L12.3952 45.6991H18.4809L21.2984 38.9372Z" fill="#051244"/>
<path d="M31.7792 45.699L26.9332 40.7403L26.0316 45.699H31.7792Z" fill="#051244"/>
<path d="M44.7373 38.7117C45.1881 39.1625 45.4134 39.5006 45.3008 39.9514C45.3008 41.3038 43.4976 41.98 41.9198 41.98C39.6658 41.98 38.4261 41.6419 36.5103 40.853L35.7214 40.5149L34.9325 45.1355C36.2849 45.699 38.7642 46.2625 41.3563 46.2625C44.9627 46.2625 47.8928 45.2482 49.5833 43.4451L44.7373 38.7117Z" fill="#051244"/>
<path d="M51.2727 45.6991H56.5695L57.6965 42.3181H64.9092L65.5854 45.6991H70.9949L69.0791 37.4721L62.3172 30.9356L62.6552 32.7388C62.6552 32.7388 63.7822 37.8102 64.0076 38.9372H59.2743C59.7251 37.8102 61.5283 32.9642 61.5283 32.9642C61.5283 32.9642 61.9791 31.7245 62.3172 30.9356" fill="#051244"/>
</g>
<defs>
<clipPath id="clip0">
<rect width="71" height="71" fill="white"/>
</clipPath>
</defs>
</svg>
