<svg xmlns="http://www.w3.org/2000/svg" width="102" height="102" fill="none" viewBox="0 0 102 102">
    <g clip-path="url(#clip0)">
        <path fill="#EB5757" d="M51 102C22.88 102 0 79.12 0 51S22.88 0 51 0s51 22.88 51 51-22.88 51-51 51z"/>
        <path fill="#DB3C3C" d="M74.8 85c-28.12 0-51-22.879-51-51 0-11.77 4.048-22.593 10.772-31.234C14.497 9.625 0 28.632 0 51.001c0 28.12 22.88 51 51 51 16.35 0 30.889-7.765 40.228-19.766C86.065 83.999 80.553 85 74.8 85z"/>
    </g>
    <g clip-path="url(#clip1)">
        <path fill="#fff" d="M54.74 51.034l15.886-15.887c1.034-1.034 1.034-2.705 0-3.738-1.033-1.034-2.704-1.034-3.737 0L51 47.296 35.115 31.409c-1.034-1.034-2.705-1.034-3.738 0-1.034 1.033-1.034 2.704 0 3.738l15.887 15.887L31.377 66.92c-1.034 1.033-1.034 2.704 0 3.737.515.516 1.192.775 1.869.775.676 0 1.353-.259 1.869-.775L51 54.772 66.89 70.66c.515.515 1.192.774 1.868.774.677 0 1.354-.259 1.87-.775 1.033-1.033 1.033-2.704 0-3.737L54.74 51.034z"/>
    </g>
    <defs>
        <clipPath id="clip0">
            <path fill="#fff" d="M0 0H102V102H0z"/>
        </clipPath>
        <clipPath id="clip1">
            <path fill="#fff" d="M0 0H40.8V40.8H0z" transform="translate(30.602 30.6)"/>
        </clipPath>
    </defs>
</svg>
