<svg width="137" height="23" viewBox="0 0 137 23" fill="none" xmlns="http://www.w3.org/2000/svg">
<path d="M10.5175 9.34017L9.33845 10.5192L6.07469 13.7864C5.68167 14.1794 5.21688 14.4665 4.69058 14.6408C3.39875 15.0748 2.00097 14.7467 1.04064 13.7864C-0.346881 12.3989 -0.346881 10.1433 1.04064 8.75237L6.66593 3.12708C6.66593 3.14075 6.66251 3.15784 6.66251 3.17493C6.65909 3.22277 6.65567 3.27061 6.65226 3.31846C6.64542 3.45516 6.64542 3.59187 6.64884 3.72857C6.65568 3.8516 6.66251 3.97805 6.6796 4.10108C6.70352 4.28563 6.7377 4.47359 6.78212 4.65814C6.81288 4.78117 6.84706 4.9042 6.88807 5.02723C7.11363 5.70732 7.48614 6.31223 7.99877 6.82486L10.5175 9.34017Z" fill="url(#paint0_linear)"/>
<path d="M6.65234 3.72864C6.65576 3.85167 6.66601 3.97812 6.6831 4.10115C6.66601 3.97812 6.65918 3.85509 6.65234 3.72864Z" fill="url(#paint1_linear)"/>
<path d="M13.7846 21.493C12.397 22.8805 10.1415 22.8805 8.75053 21.493L3.12524 15.8677C3.19018 15.8745 3.25511 15.8779 3.32004 15.8814C3.45675 15.8882 3.59345 15.8916 3.73015 15.8848C3.85318 15.8779 3.97963 15.8711 4.10267 15.854C4.28721 15.8301 4.47517 15.7959 4.65972 15.7515C4.78275 15.7207 4.90579 15.6866 5.02882 15.6455C5.70891 15.42 6.31381 15.0475 6.82645 14.5348L9.34176 12.0195L10.5208 13.1986L13.788 16.4623C14.181 16.8554 14.4681 17.3201 14.6424 17.8464C15.073 19.1349 14.7449 20.5326 13.7846 21.493Z" fill="url(#paint2_linear)"/>
<path d="M3.73022 15.8848C3.85326 15.8813 3.97971 15.8711 4.10274 15.854C3.97971 15.8677 3.85326 15.8779 3.73022 15.8848Z" fill="url(#paint3_linear)"/>
<path d="M19.41 6.66764C19.3963 6.66764 19.3792 6.66422 19.3621 6.66422C19.3143 6.6608 19.2664 6.65738 19.2186 6.65397C19.0819 6.64713 18.9452 6.64713 18.8085 6.65055C18.6855 6.65738 18.559 6.66422 18.436 6.6813C18.2514 6.70523 18.0635 6.73941 17.8789 6.78384C17.7559 6.81459 17.6329 6.84877 17.5098 6.88978C16.8297 7.11534 16.2248 7.48785 15.7122 8.00048L13.1969 10.5158L12.0178 9.33674L8.75065 6.07298C8.35763 5.67996 8.07056 5.21518 7.89626 4.68888C7.46223 3.39704 7.79032 1.99927 8.75065 1.03894C9.44441 0.345175 10.3569 0 11.266 0C12.1785 0 13.0875 0.345175 13.7813 1.03894L19.41 6.66764Z" fill="url(#paint4_linear)"/>
<path d="M18.4326 6.68127C18.5556 6.6676 18.6821 6.65735 18.8051 6.65051C18.6821 6.65393 18.5591 6.6676 18.4326 6.68127Z" fill="url(#paint5_linear)"/>
<path d="M21.4947 13.783L15.8694 19.4083C15.8694 19.3946 15.8728 19.3775 15.8728 19.3604C15.8762 19.3126 15.8796 19.2647 15.8831 19.2169C15.8899 19.0802 15.8933 18.9435 15.8865 18.8068C15.8797 18.6838 15.8728 18.5573 15.8557 18.4343C15.8318 18.2497 15.7976 18.0618 15.7532 17.8772C15.7224 17.7542 15.6883 17.6312 15.6473 17.5081C15.4217 16.828 15.0492 16.2231 14.5366 15.7105L12.0212 13.1952L13.2003 12.0161L16.4641 8.74894C16.8571 8.35592 17.3219 8.06885 17.8482 7.89455C19.14 7.46053 20.5378 7.78861 21.4981 8.74894C22.8788 10.1399 22.8788 12.3955 21.4947 13.783Z" fill="url(#paint6_linear)"/>
<path d="M15.8557 18.4343C15.8694 18.5574 15.8796 18.6838 15.8865 18.8068C15.8796 18.6804 15.8694 18.5574 15.8557 18.4343Z" fill="url(#paint7_linear)"/>
<path d="M32.2258 4.27869H36.1491C38.5072 4.27869 39.8606 5.59103 39.8606 7.45359C39.8606 10.0475 37.9297 11.3052 35.2503 11.3052H32.9947L32.1096 15.519H29.8438L32.2258 4.27869ZM33.3877 9.46653H35.117C36.6378 9.46653 37.458 8.89922 37.458 7.60396C37.458 6.62655 36.8942 6.12075 35.6878 6.12075H34.102L33.3877 9.46653Z" fill="#4079FB"/>
<path d="M47.0887 13.4549C46.9042 14.3264 46.7196 15.273 46.7128 15.5225H44.5529C44.57 15.2799 44.6281 14.8424 44.6725 14.569C44.2521 15.1056 43.6951 15.6865 42.1196 15.6865C40.4552 15.6865 39.7581 14.5143 39.7581 13.5198C39.7581 11.1685 41.8154 10.5431 43.678 10.3415C44.382 10.2732 45.0348 10.2731 45.5645 10.2595L45.6362 9.86305C45.7593 9.25472 45.7593 8.45501 44.5631 8.45501C43.5071 8.45501 43.3157 9.02916 43.1243 9.43926H40.8619C41.1798 8.0825 42.1196 6.92053 44.7408 6.92053C46.7948 6.92053 48.3088 7.7715 47.8337 9.98607L47.0887 13.4549ZM45.2466 11.729C44.6998 11.7324 44.2248 11.7735 43.7908 11.8247C42.5468 12.0093 42.0581 12.4228 42.0581 13.1336C42.0581 13.6223 42.3759 13.9983 43.0902 13.9983C44.6212 13.9983 45.004 12.7543 45.2159 11.8589L45.2466 11.729Z" fill="#4079FB"/>
<path d="M51.5178 7.08118C51.822 10.6833 51.9655 12.8363 51.986 13.7181H52.0031C52.4235 12.7817 53.3975 10.6013 55.1199 7.08118H57.4336L52.8336 15.8984C51.4119 18.6359 50.4823 18.9161 48.7291 18.9161C48.507 18.9161 47.926 18.8683 47.6116 18.8034L48.0114 16.975C48.1652 17.0092 48.4079 17.0433 48.7462 17.0433C49.7715 17.0433 50.079 16.6264 50.4174 16.0181L49.3033 7.08118H51.5178Z" fill="#4079FB"/>
<path d="M58.8859 15.5224L58.5237 4.27869H60.8032C60.7656 7.89787 60.8066 11.9067 60.6596 13.1336H60.6767C61.2065 11.5888 63.5372 6.8521 64.7094 4.27869H66.7121C66.8146 6.43516 67.0265 11.1787 66.9445 13.0174H66.9616C67.4503 11.5 68.5952 8.99832 70.6115 4.27869H72.8842L67.5016 15.5224H65.1606C65.1127 13.3044 64.935 9.39476 64.9589 7.45701H64.9418C64.2447 9.50754 62.2556 13.3899 61.2304 15.5224H58.8859Z" fill="#4079FB"/>
<path d="M74.1113 11.8042C74.0771 11.9853 74.06 12.1255 74.06 12.31C74.06 13.2054 74.3949 13.9778 75.3929 13.9778C76.2951 13.9778 76.6881 13.4959 76.9718 12.9525H79.2786C78.807 14.1999 77.7305 15.6865 75.2049 15.6865C72.9356 15.6865 71.825 14.2648 71.825 12.2212C71.825 9.99633 73.045 6.92053 76.401 6.92053C78.8856 6.92053 79.7537 8.43792 79.7537 10.1638C79.7537 10.8439 79.6648 11.3326 79.5281 11.8042H74.1113ZM77.6006 10.3244C77.6348 10.1672 77.6382 10.0476 77.6382 9.94849C77.6382 9.20688 77.3135 8.58147 76.3361 8.58147C75.3177 8.58147 74.6991 9.23421 74.4086 10.3244H77.6006Z" fill="#4079FB"/>
<path d="M82.8945 3.61914H85.1125L84.1726 8.01752C84.6989 7.38186 85.485 6.92049 86.6401 6.92049C88.4035 6.92049 89.3536 8.26017 89.3536 10.092C89.3536 12.6688 87.9285 15.6865 84.8117 15.6865C83.6497 15.6865 83.0107 15.2491 82.7441 14.7296C82.686 14.9654 82.5971 15.3413 82.5322 15.5225H80.3621C80.4851 14.9586 80.6526 14.2135 80.8405 13.3592L82.8945 3.61914ZM87.0434 10.3244C87.0434 9.27176 86.5786 8.74546 85.6456 8.74546C84.4905 8.74546 83.7215 9.59301 83.3763 11.3599C83.0517 13.0037 83.4379 13.8752 84.6784 13.8752C86.394 13.8752 87.0434 11.7085 87.0434 10.3244Z" fill="#4079FB"/>
<path d="M91.4655 15.5224L91.1033 4.27869H93.3828C93.3452 7.89787 93.3862 11.9067 93.2392 13.1336H93.2563C93.786 11.5888 96.1168 6.8521 97.289 4.27869H99.2917C99.3942 6.43516 99.6061 11.1787 99.5241 13.0174H99.5412C100.03 11.5 101.175 8.99832 103.191 4.27869H105.464L100.081 15.5224H97.7401C97.6923 13.3044 97.5146 9.39476 97.5385 7.45701H97.5214C96.8242 9.50754 94.8352 13.3899 93.81 15.5224H91.4655Z" fill="#4079FB"/>
<path d="M111.304 13.4549C111.12 14.3264 110.935 15.273 110.928 15.5225H108.768C108.786 15.2799 108.844 14.8424 108.888 14.569C108.468 15.1056 107.911 15.6865 106.335 15.6865C104.671 15.6865 103.974 14.5143 103.974 13.5198C103.974 11.1685 106.031 10.5431 107.894 10.3415C108.598 10.2732 109.25 10.2731 109.78 10.2595L109.852 9.86305C109.975 9.25472 109.975 8.45501 108.779 8.45501C107.723 8.45501 107.531 9.02916 107.34 9.43926H105.078C105.395 8.0825 106.335 6.92053 108.96 6.92053C111.014 6.92053 112.528 7.7715 112.053 9.98607L111.304 13.4549ZM109.462 11.729C108.915 11.7324 108.44 11.7735 108.006 11.8247C106.762 12.0093 106.274 12.4228 106.274 13.1336C106.274 13.6223 106.591 13.9983 107.306 13.9983C108.837 13.9983 109.22 12.7543 109.431 11.8589L109.462 11.729Z" fill="#4079FB"/>
<path d="M112.993 15.5225L115.508 3.61914H117.726L115.211 15.5225H112.993Z" fill="#4079FB"/>
<path d="M117.312 15.5225L119.828 3.61914H122.046L119.53 15.5225H117.312Z" fill="#4079FB"/>
<path d="M124.27 11.8042C124.236 11.9853 124.219 12.1255 124.219 12.31C124.219 13.2054 124.554 13.9778 125.552 13.9778C126.454 13.9778 126.847 13.4959 127.131 12.9525H129.438C128.966 14.1999 127.89 15.6865 125.364 15.6865C123.095 15.6865 121.984 14.2648 121.984 12.2212C121.984 9.99633 123.204 6.92053 126.56 6.92053C129.045 6.92053 129.913 8.43792 129.913 10.1638C129.913 10.8439 129.824 11.3326 129.687 11.8042H124.27ZM127.756 10.3244C127.791 10.1672 127.794 10.0476 127.794 9.94849C127.794 9.20688 127.469 8.58147 126.492 8.58147C125.473 8.58147 124.855 9.23421 124.564 10.3244H127.756Z" fill="#4079FB"/>
<path d="M131.42 7.08114H132.671L133.163 4.80505H135.364L134.886 7.08114H136.475L136.095 8.77624H134.506L133.621 13.0243C133.512 13.5506 133.56 13.8957 134.223 13.8957C134.479 13.8957 134.698 13.8786 134.944 13.8411L134.605 15.4473C134.11 15.6045 133.57 15.6079 133.105 15.6079C131.348 15.6079 131.075 14.5997 131.379 13.1234L132.288 8.77624H131.037L131.42 7.08114Z" fill="#4079FB"/>
<defs>
<linearGradient id="paint0_linear" x1="7.12815" y1="7.66585" x2="1.49825" y2="13.4304" gradientUnits="userSpaceOnUse">
<stop offset="5e-08" stop-color="#2AFADF"/>
<stop offset="0.1407" stop-color="#2CF1E1"/>
<stop offset="0.3731" stop-color="#30D8E6"/>
<stop offset="0.6682" stop-color="#37AFEF"/>
<stop offset="1" stop-color="#4079FB"/>
</linearGradient>
<linearGradient id="paint1_linear" x1="5.70996" y1="4.3846" x2="-5.19187" y2="9.71933" gradientUnits="userSpaceOnUse">
<stop stop-color="#4079FB"/>
<stop offset="0.1594" stop-color="#3899D1"/>
<stop offset="0.3226" stop-color="#31B3AE"/>
<stop offset="0.4886" stop-color="#2CC893"/>
<stop offset="0.6557" stop-color="#28D680"/>
<stop offset="0.8251" stop-color="#26DF74"/>
<stop offset="1" stop-color="#25E270"/>
</linearGradient>
<linearGradient id="paint2_linear" x1="7.12347" y1="14.8079" x2="13.0318" y2="20.8217" gradientUnits="userSpaceOnUse">
<stop offset="5e-08" stop-color="#2AFADF"/>
<stop offset="0.1407" stop-color="#2CF1E1"/>
<stop offset="0.3731" stop-color="#30D8E6"/>
<stop offset="0.6682" stop-color="#37AFEF"/>
<stop offset="1" stop-color="#4079FB"/>
</linearGradient>
<linearGradient id="paint3_linear" x1="3.73053" y1="15.8692" x2="4.10301" y2="15.8692" gradientUnits="userSpaceOnUse">
<stop stop-color="white"/>
<stop offset="1"/>
</linearGradient>
<linearGradient id="paint4_linear" x1="8.53951" y1="1.00513" x2="15.1583" y2="7.38864" gradientUnits="userSpaceOnUse">
<stop stop-color="#4079FB"/>
<stop offset="0.3318" stop-color="#37AFEF"/>
<stop offset="0.6269" stop-color="#30D8E6"/>
<stop offset="0.8593" stop-color="#2CF1E1"/>
<stop offset="1" stop-color="#2AFADF"/>
</linearGradient>
<linearGradient id="paint5_linear" x1="18.4333" y1="6.66603" x2="18.8058" y2="6.66603" gradientUnits="userSpaceOnUse">
<stop offset="2.5e-07" stop-color="#25E270"/>
<stop offset="0.1607" stop-color="#26DF74"/>
<stop offset="0.332" stop-color="#28D581"/>
<stop offset="0.5081" stop-color="#2CC596"/>
<stop offset="0.6876" stop-color="#32AEB4"/>
<stop offset="0.8678" stop-color="#3A92DA"/>
<stop offset="1" stop-color="#4079FB"/>
</linearGradient>
<linearGradient id="paint6_linear" x1="14.1964" y1="16.0142" x2="21.6964" y2="8.64296" gradientUnits="userSpaceOnUse">
<stop offset="5e-08" stop-color="#2AFADF"/>
<stop offset="0.1407" stop-color="#2CF1E1"/>
<stop offset="0.3731" stop-color="#30D8E6"/>
<stop offset="0.6682" stop-color="#37AFEF"/>
<stop offset="1" stop-color="#4079FB"/>
</linearGradient>
<linearGradient id="paint7_linear" x1="15.8546" y1="18.619" x2="15.8849" y2="18.619" gradientUnits="userSpaceOnUse">
<stop stop-color="white"/>
<stop offset="1"/>
</linearGradient>
</defs>
</svg>
