<svg xmlns="http://www.w3.org/2000/svg" width="136" height="30" fill="none" viewBox="0 0 136 30">
    <path fill="#373743" d="M15.062 30C6.747 30 0 23.285 0 14.992 0 6.716 6.747 0 15.062 0s15.062 6.716 15.062 14.992C30.14 23.285 23.393 30 15.062 30z"/>
    <path fill="#fff" d="M20.834 17.524c-.35.97-1.005 1.804-1.903 2.32-.93.545-2.026.863-3.198.863-3.473 0-6.275-2.789-6.016-6.124.213-2.865 2.71-5.17 5.741-5.29 1.25-.046 2.422.257 3.412.833.914.53 1.599 1.365 1.95 2.35 0 .015 0 .015.014.03h4.204c-1.112-4.366-5.087-7.595-9.823-7.595-2.239 0-4.31.728-5.985 1.94.99-.378 2.07-.59 3.182-.59 3.442 0 6.443 1.986 7.874 4.866h-.03c-1.447-2.502-4.25-4.2-7.478-4.2h-.32c-3.366.122-6.198 2.396-7.051 5.488-.229.819-.35 1.683-.35 2.577 0 .895.121 1.759.35 2.577.853 3.078 3.685 5.367 7.051 5.488h.32c3.213 0 6.016-1.698 7.463-4.2h.03c-1.432 2.881-4.432 4.867-7.874 4.867-1.127 0-2.208-.212-3.198-.606 1.675 1.228 3.747 1.955 6 1.955 4.737 0 8.712-3.229 9.824-7.595h-4.204c.03.03.015.03.015.046z"/>
    <path fill="#25E270" d="M34.617 14.735c0-3.26 1.873-4.897 5.62-4.897 1.386 0 2.528.288 3.411.88.884.59 1.508 1.364 1.858 2.319.107.349.122.621.046.803-.076.182-.274.334-.594.44l-1.37.485c-.35.121-.61.152-.793.06-.182-.09-.335-.302-.487-.666-.35-.804-1.05-1.198-2.071-1.198-1.31 0-1.95.607-1.95 1.834l-.015 3.35c-.015 1.198.64 1.805 1.934 1.805.975 0 1.63-.41 2.01-1.228.138-.334.29-.546.473-.622.183-.076.441-.06.777.046l1.614.485c.67.242.868.667.594 1.273-.868 2.122-2.68 3.183-5.437 3.183-1.858 0-3.26-.47-4.204-1.424-.944-.94-1.416-2.244-1.416-3.881v-3.047zM52.968 23.118c-2.071 0-3.487-.334-4.295-1-.837-.683-1.248-1.744-1.233-3.123.015-1.456.472-2.502 1.355-3.108.868-.591 2.285-.88 4.219-.88.167 0 .777.03 1.964.107v-.38c0-.666-.137-1.151-.426-1.47-.274-.303-.777-.454-1.508-.454-1.05 0-1.781.318-2.223 1-.213.303-.396.47-.564.53-.06.016-.137.03-.213.03-.152 0-.335-.044-.563-.12l-.945-.41c-.35-.151-.578-.364-.685-.621-.122-.273-.091-.576.091-.894.899-1.683 2.605-2.547 5.072-2.547 1.767 0 3.122.454 4.02 1.334.884.864 1.31 2.152 1.295 3.82l-.06 6.003c0 .47-.077.788-.23 1-.152.213-.395.395-.776.546-.944.44-2.391.637-4.295.637zm-.152-5.276c-.762 0-1.295.107-1.584.319-.259.197-.396.5-.396.924 0 .41.107.713.305.895.122.106.487.288 1.492.288.96 0 1.706-.06 2.239-.167.076-.03.076-.06.076-.076l.015-2.076c-1.675-.091-2.101-.107-2.147-.107zM60.325 13.643c.016-1.212.442-2.152 1.31-2.82.868-.651 2.163-.985 3.868-.985 2.574 0 4.34.865 5.3 2.577.168.319.229.577.168.774-.061.197-.26.363-.594.5l-1.325.56c-.35.122-.594.167-.716.122-.137-.046-.305-.212-.518-.5-.441-.576-1.157-.864-2.162-.864-1.173 0-1.782.288-1.813.864 0 .348.168.606.503.742.335.152.96.258 1.843.334 1.675.182 2.954.576 3.822 1.198.868.621 1.31 1.607 1.295 2.956 0 1.258-.472 2.228-1.401 2.925-.93.698-2.27 1.046-4.006 1.046-2.954 0-4.812-.955-5.589-2.865-.213-.591-.03-1 .579-1.197l1.462-.485c.335-.091.579-.106.716-.046s.304.243.487.561c.365.606 1.097.91 2.193.91 1.37 0 2.071-.334 2.102-.986 0-.379-.183-.652-.533-.788-.35-.152-1.036-.258-2.041-.364-.685-.06-1.31-.182-1.843-.333-.548-.167-1.066-.395-1.553-.698-.488-.303-.868-.727-1.142-1.258-.275-.53-.412-1.152-.412-1.88zM75.874 4.912c.32 0 .548.06.67.197.122.121.183.364.183.697l.03 4.2h.153c.076-.016.183-.031.335-.062.137-.03.304-.045.487-.06s.396-.03.624-.03c.229-.016.457-.016.67-.016 1.722 0 3.031.455 3.915 1.38.883.91 1.31 2.183 1.31 3.774l.03 6.837c0 .334-.076.576-.198.698-.137.12-.366.197-.7.197h-1.89c-.319 0-.547-.061-.684-.197-.138-.122-.198-.364-.198-.698l-.046-6.882c.03-1.198-.655-1.804-2.041-1.804-.168 0-.335.015-.518.03s-.35.03-.487.046c-.137.015-.274.03-.396.045-.122.016-.213.03-.274.046l-.122.03v8.504c0 .334-.076.576-.198.698-.137.121-.35.197-.685.197h-1.889c-.335 0-.579-.06-.7-.197-.122-.122-.183-.364-.183-.698l-.015-16.038c0-.333.076-.576.198-.697.137-.122.365-.197.7-.197h1.92zM86.093 13.643c.015-1.212.442-2.152 1.31-2.82.868-.651 2.162-.985 3.868-.985 2.574 0 4.34.865 5.3 2.577.167.319.228.577.167.774-.06.197-.258.363-.594.5l-1.325.56c-.35.122-.594.167-.715.122-.137-.046-.305-.212-.518-.5-.442-.576-1.158-.864-2.163-.864-1.172 0-1.782.288-1.812.864 0 .348.167.606.502.742.336.152.96.258 1.843.334 1.676.182 2.955.576 3.823 1.198.868.621 1.31 1.607 1.294 2.956 0 1.258-.472 2.228-1.4 2.925-.93.698-2.27 1.046-4.006 1.046-2.955 0-4.813-.955-5.59-2.865-.212-.591-.03-1 .58-1.197l1.462-.485c.335-.091.578-.106.715-.046s.305.243.488.561c.365.606 1.096.91 2.193.91 1.37 0 2.07-.334 2.101-.986 0-.379-.182-.652-.533-.788-.35-.152-1.035-.258-2.04-.364-.686-.06-1.31-.182-1.843-.333-.549-.167-1.066-.395-1.554-.698-.487-.303-.868-.727-1.142-1.258-.274-.53-.411-1.152-.411-1.88zM98.46 14.78c.015-1.591.518-2.804 1.523-3.653 1.005-.849 2.436-1.273 4.31-1.273 1.69 0 3.076.409 4.127 1.243 1.051.833 1.599 1.925 1.614 3.29 0 2.273-1.751 3.425-5.254 3.425-.67 0-1.584-.076-2.696-.212l.016.621c-.016 1.274.7 1.91 2.147 1.91 1.112 0 1.904-.318 2.391-.97.228-.288.426-.455.594-.5.183-.046.442.015.792.197l1.203.652c.609.333.731.803.366 1.425-.884 1.455-2.681 2.198-5.377 2.198-1.964 0-3.426-.53-4.4-1.592-.96-1.06-1.432-2.41-1.417-4.047l.06-2.714zm7.95-.743c-.016-.424-.198-.742-.549-.97-.35-.227-.868-.333-1.553-.333-.67 0-1.218.166-1.599.515-.396.349-.594.819-.625 1.41l-.015.318c1.051.122 1.843.197 2.376.197 1.31-.015 1.949-.379 1.965-1.137zM112.745 10.718c1.431-.576 3.076-.864 4.949-.864 1.721 0 3.031.454 3.914 1.379.884.925 1.325 2.198 1.325 3.82l.015 6.791c0 .334-.076.576-.198.698-.137.121-.365.197-.7.197h-1.889c-.319 0-.548-.06-.685-.197-.137-.122-.198-.364-.198-.698l-.03-6.897c.015-1.198-.67-1.804-2.041-1.804-.625 0-1.203.076-1.706.212-.03 0-.061.03-.076.091l.015 8.383c0 .334-.076.576-.198.698-.137.12-.35.197-.685.197h-1.889c-.335 0-.578-.061-.7-.197-.122-.122-.183-.364-.183-.698v-9.732c.015-.394.076-.697.198-.88.107-.166.366-.348.762-.5zM124.868 14.704c.015-1.667.441-2.895 1.309-3.683.868-.789 2.163-1.183 3.93-1.183.7 0 1.431.046 2.223.152V5.806c0-.333.076-.576.198-.697.137-.122.366-.197.701-.197h1.888c.32 0 .548.06.67.197.122.121.183.364.183.697V20.95c-.015.394-.076.682-.183.849-.122.167-.365.318-.761.485-1.325.546-2.909.819-4.767.819-1.797 0-3.137-.486-4.051-1.44-.914-.97-1.356-2.26-1.34-3.881v-3.078zm7.462-1.47c-.594-.09-1.127-.152-1.599-.152-.762 0-1.31.152-1.675.455-.351.303-.533.804-.549 1.516v3.017c0 .56.183 1 .533 1.303.351.304.853.455 1.493.455.716 0 1.294-.06 1.736-.166.031-.016.061-.061.076-.122l-.015-6.306z"/>
</svg>
