<svg width="68" height="68" viewBox="0 0 68 68" fill="none" xmlns="http://www.w3.org/2000/svg">
<path d="M31.7388 28.1859L28.1808 31.7439L18.3317 41.6033C17.1457 42.7894 15.7431 43.6557 14.1548 44.1816C10.2565 45.4914 6.03837 44.5014 3.14037 41.6033C-1.04679 37.4162 -1.04679 30.6095 3.14037 26.412L20.1159 9.43652C20.1159 9.47778 20.1056 9.52936 20.1056 9.58092C20.0952 9.72531 20.0849 9.86967 20.0746 10.0141C20.054 10.4266 20.054 10.8391 20.0643 11.2517C20.0849 11.6229 20.1056 12.0045 20.1571 12.3758C20.2293 12.9327 20.3324 13.4999 20.4665 14.0568C20.5593 14.4281 20.6625 14.7994 20.7862 15.1707C21.4669 17.223 22.591 19.0484 24.138 20.5954L31.7388 28.1859Z" fill="url(#paint0_linear)"/>
<path d="M20.0747 11.2515C20.085 11.6227 20.116 12.0043 20.1675 12.3756C20.116 12.0043 20.0953 11.6331 20.0747 11.2515Z" fill="url(#paint1_linear)"/>
<path d="M41.5982 64.8596C37.4111 69.0468 30.6044 69.0468 26.4069 64.8596L9.4314 47.8841C9.62735 47.9047 9.8233 47.9151 10.0192 47.9254C10.4318 47.946 10.8443 47.9563 11.2568 47.9357C11.6281 47.9151 12.0097 47.8944 12.381 47.8429C12.9379 47.7707 13.5051 47.6675 14.062 47.5335C14.4333 47.4406 14.8046 47.3375 15.1758 47.2138C17.2282 46.5331 19.0536 45.409 20.6006 43.862L28.1911 36.2715L31.7491 39.8295L41.6085 49.6786C42.7946 50.8646 43.6609 52.2672 44.1868 53.8555C45.4863 57.7435 44.4962 61.9616 41.5982 64.8596Z" fill="url(#paint2_linear)"/>
<path d="M11.2568 47.9356C11.6281 47.9253 12.0097 47.8943 12.381 47.8428C12.0097 47.884 11.6281 47.915 11.2568 47.9356Z" fill="url(#paint3_linear)"/>
<path d="M58.5737 20.121C58.5325 20.121 58.4809 20.1107 58.4293 20.1107C58.285 20.1004 58.1406 20.0901 57.9962 20.0798C57.5837 20.0591 57.1711 20.0591 56.7586 20.0695C56.3873 20.0901 56.0057 20.1107 55.6345 20.1623C55.0775 20.2345 54.5103 20.3376 53.9534 20.4717C53.5821 20.5645 53.2109 20.6676 52.8396 20.7914C50.7873 21.4721 48.9618 22.5962 47.4149 24.1432L39.8243 31.7337L36.2663 28.1756L26.4069 18.3265C25.2209 17.1405 24.3546 15.7379 23.8286 14.1497C22.5188 10.2513 23.5089 6.03322 26.4069 3.13522C28.5005 1.04164 31.2541 0 33.9974 0C36.751 0 39.4943 1.04164 41.5879 3.13522L58.5737 20.121Z" fill="url(#paint4_linear)"/>
<path d="M55.624 20.1622C55.9953 20.1209 56.3769 20.09 56.7482 20.0693C56.3769 20.0796 56.0056 20.1209 55.624 20.1622Z" fill="url(#paint5_linear)"/>
<path d="M64.8648 41.5928L47.8893 58.5684C47.8893 58.5271 47.8996 58.4755 47.8996 58.424C47.9099 58.2796 47.9202 58.1352 47.9305 57.9908C47.9511 57.5783 47.9614 57.1657 47.9408 56.7532C47.9202 56.3819 47.8996 56.0004 47.848 55.6291C47.7758 55.0722 47.6727 54.5049 47.5386 53.948C47.4458 53.5768 47.3427 53.2055 47.2189 52.8342C46.5382 50.7819 45.4141 48.9565 43.8671 47.4095L36.2766 39.819L39.8347 36.2609L49.6838 26.4015C50.8698 25.2155 52.2723 24.3492 53.8606 23.8232C57.759 22.5135 61.9771 23.5035 64.8751 26.4015C69.0416 30.599 69.0416 37.4057 64.8648 41.5928Z" fill="url(#paint6_linear)"/>
<path d="M47.8479 55.6294C47.8892 56.0007 47.9201 56.3823 47.9407 56.7535C47.9201 56.3719 47.8892 56.0007 47.8479 55.6294Z" fill="url(#paint7_linear)"/>
<defs>
<linearGradient id="paint0_linear" x1="21.5107" y1="23.1333" x2="4.5213" y2="40.5289" gradientUnits="userSpaceOnUse">
<stop offset="5e-08" stop-color="#2AFADF"/>
<stop offset="0.1407" stop-color="#2CF1E1"/>
<stop offset="0.3731" stop-color="#30D8E6"/>
<stop offset="0.6682" stop-color="#37AFEF"/>
<stop offset="1" stop-color="#4079FB"/>
</linearGradient>
<linearGradient id="paint1_linear" x1="17.2309" y1="13.231" x2="-15.6678" y2="29.3297" gradientUnits="userSpaceOnUse">
<stop stop-color="#4079FB"/>
<stop offset="0.1594" stop-color="#3899D1"/>
<stop offset="0.3226" stop-color="#31B3AE"/>
<stop offset="0.4886" stop-color="#2CC893"/>
<stop offset="0.6557" stop-color="#28D680"/>
<stop offset="0.8251" stop-color="#26DF74"/>
<stop offset="1" stop-color="#25E270"/>
</linearGradient>
<linearGradient id="paint2_linear" x1="21.4969" y1="44.6859" x2="39.3264" y2="62.8339" gradientUnits="userSpaceOnUse">
<stop offset="5e-08" stop-color="#2AFADF"/>
<stop offset="0.1407" stop-color="#2CF1E1"/>
<stop offset="0.3731" stop-color="#30D8E6"/>
<stop offset="0.6682" stop-color="#37AFEF"/>
<stop offset="1" stop-color="#4079FB"/>
</linearGradient>
<linearGradient id="paint3_linear" x1="11.2578" y1="47.8888" x2="12.3818" y2="47.8888" gradientUnits="userSpaceOnUse">
<stop stop-color="white"/>
<stop offset="1"/>
</linearGradient>
<linearGradient id="paint4_linear" x1="25.7698" y1="3.03321" x2="45.7433" y2="22.2968" gradientUnits="userSpaceOnUse">
<stop stop-color="#4079FB"/>
<stop offset="0.3318" stop-color="#37AFEF"/>
<stop offset="0.6269" stop-color="#30D8E6"/>
<stop offset="0.8593" stop-color="#2CF1E1"/>
<stop offset="1" stop-color="#2AFADF"/>
</linearGradient>
<linearGradient id="paint5_linear" x1="55.6261" y1="20.1162" x2="56.7501" y2="20.1162" gradientUnits="userSpaceOnUse">
<stop offset="2.5e-07" stop-color="#25E270"/>
<stop offset="0.1607" stop-color="#26DF74"/>
<stop offset="0.332" stop-color="#28D581"/>
<stop offset="0.5081" stop-color="#2CC596"/>
<stop offset="0.6876" stop-color="#32AEB4"/>
<stop offset="0.8678" stop-color="#3A92DA"/>
<stop offset="1" stop-color="#4079FB"/>
</linearGradient>
<linearGradient id="paint6_linear" x1="42.8406" y1="48.3259" x2="65.4735" y2="26.0817" gradientUnits="userSpaceOnUse">
<stop offset="5e-08" stop-color="#2AFADF"/>
<stop offset="0.1407" stop-color="#2CF1E1"/>
<stop offset="0.3731" stop-color="#30D8E6"/>
<stop offset="0.6682" stop-color="#37AFEF"/>
<stop offset="1" stop-color="#4079FB"/>
</linearGradient>
<linearGradient id="paint7_linear" x1="47.8445" y1="56.1868" x2="47.9359" y2="56.1868" gradientUnits="userSpaceOnUse">
<stop stop-color="white"/>
<stop offset="1"/>
</linearGradient>
</defs>
</svg>
