<svg xmlns="http://www.w3.org/2000/svg" width="102" height="102" fill="none" viewBox="0 0 102 102">
    <g clip-path="url(#clip0)">
        <path fill="#C3E678" d="M51 102C22.88 102 0 79.12 0 51S22.88 0 51 0s51 22.88 51 51-22.88 51-51 51z"/>
        <path fill="#A5D76E" d="M74.8 85c-28.12 0-51-22.879-51-51 0-11.77 4.048-22.593 10.772-31.234C14.497 9.625 0 28.632 0 51.001c0 28.12 22.88 51 51 51 16.35 0 30.889-7.765 40.228-19.766C86.065 83.999 80.553 85 74.8 85z"/>
        <path fill="#fff" d="M40.449 77.38c-.9 0-1.8-.343-2.487-1.03L16.86 55.246c-1.374-1.373-1.374-3.6 0-4.974 1.372-1.374 3.601-1.374 4.973 0L40.45 68.888l36.203-36.202c1.372-1.374 3.601-1.374 4.974 0 1.374 1.373 1.374 3.6 0 4.974l-38.69 38.69c-.686.687-1.587 1.03-2.487 1.03z"/>
    </g>
    <defs>
        <clipPath id="clip0">
            <path fill="#fff" d="M0 0H102V102H0z"/>
        </clipPath>
    </defs>
</svg>
